<svg width="34" height="42" viewBox="0 0 34 43" fill="none" xmlns="http://www.w3.org/2000/svg">
<path d="M9.41142 38.7985C8.56046 38.7494 7.7095 38.7149 6.86035 38.6458C6.3371 38.604 5.80118 38.564 5.29784 38.4258C4.06123 38.0858 3.39133 37.2132 3.3008 35.9296C3.16501 34.0025 3.90915 32.7226 5.69073 31.9918C6.54713 31.6409 7.44516 31.3791 8.3432 31.15C9.11268 30.9537 9.7156 30.5683 10.0705 29.8665C10.8092 28.4085 11.6112 26.9704 12.2124 25.4542C13.3132 22.6799 14.3289 19.871 15.2993 17.0494C16.1775 14.5006 16.335 11.8408 16.2336 9.16285C16.1376 6.5958 15.7592 4.06692 15.2305 1.55623C15.0296 0.574496 15.5184 0 16.5269 0C20.1607 0 23.7945 0 27.4301 0C28.5019 0 28.9546 0.652671 28.6649 1.69985C28.4512 2.47433 28.2484 3.26154 28.1398 4.05602C27.9081 5.7486 28.4729 7.22483 29.5557 8.49563C30.298 9.36647 31.1164 10.1755 31.8931 11.0172C32.7006 11.8935 33.4665 12.8116 33.7272 14.0133C34.4279 17.2476 33.6077 20.0692 30.7198 21.9145C29.3149 22.8126 27.7795 23.3998 26.1717 23.7798C24.9387 24.0707 23.9266 24.6997 23.0177 25.5414C21.6327 26.8213 20.4884 28.3139 19.3514 29.8083C17.9156 31.6936 16.4943 33.588 15.0513 35.466C14.6982 35.9242 14.2927 36.3423 13.8889 36.7587C12.9873 37.6931 11.9878 38.4785 10.6951 38.7967H9.41142V38.7985Z" fill="white"/>
<path d="M8.49208 42.0001C12.6298 42.0001 15.9842 38.6319 15.9842 34.4771C15.9842 30.3223 12.6298 26.9541 8.49208 26.9541C4.35432 26.9541 1 30.3223 1 34.4771C1 38.6319 4.35432 42.0001 8.49208 42.0001Z" stroke="#0085FF" stroke-width="2" stroke-miterlimit="10"/>
</svg>
